<?xml version="1.0" encoding="iso-8859-1"?>
<!-- Uploaded to: SVG Repo, www.svgrepo.com, Generator: SVG Repo Mixer Tools -->
<svg fill="#000000" height="800px" width="800px" version="1.1" id="Layer_1" xmlns="http://www.w3.org/2000/svg" xmlns:xlink="http://www.w3.org/1999/xlink" 
	 viewBox="0 0 512 512" xml:space="preserve">
<g>
	<g>
		<path d="M481.902,182.903c6.076-12.262,6.076-26.53-0.026-38.221c-5.914-11.332-16.87-18.935-30.071-20.873
			c-15.172-2.219-34.799,9.984-46.455,28.817l-24.269,36.651l25.745-92.672c5.069-18.261-1.911-37.7-16.981-47.283
			c-6.827-4.352-14.746-6.656-22.878-6.656c-22.468,0-36.838,21.649-42.231,39.902L298.7,160.725V42.743
			c0-22.451-17.229-41.173-39.211-42.624c-0.819-0.051-1.579,0.077-2.389,0.068C256.793,0.154,256.52,0,256.204,0h-0.085
			c-0.427,0-0.794,0.188-1.203,0.247c-11.11,0.265-21.274,3.9-28.774,10.923c-8.363,7.825-12.774,18.714-12.774,31.497v126.251
			L187.494,77.5c-5.538-21.376-14.891-43.221-42.163-43.349c-0.026,0-0.043-0.017-0.06-0.017h-0.085
			c-0.009,0-0.017,0.009-0.017,0.009c-0.026,0-0.051-0.009-0.068-0.009c-18.415,0-34.202,10.982-40.201,27.981
			c-2.423,6.895-2.705,14.643-0.802,22.989l25.353,111.548c41.796,76.305,62.788,97.587,71.578,103.45
			c7.279,4.855,19.456,12.971,20.847,32.085c0.341,4.702-3.191,8.781-7.885,9.122c-0.213,0.017-0.427,0.026-0.631,0.026
			c-4.437,0-8.175-3.422-8.508-7.91c-0.725-10.035-5.734-14.089-13.286-19.123c-17.536-11.682-42.76-47.258-74.965-105.617
			c-20.582-12.442-46.003-16.521-67.021-8.61c-4.77,1.792-8.9,4.361-11.588,6.144c-12.8,8.491-12.45,18.91-12.228,22.707
			c-0.811,4.634,0.137,5.726,11.81,19.217c15.044,17.382,46.353,53.564,66.133,89.139c0.768,1.254,14.669,23.714,32.666,46.677
			c24.55,18.697,57.131,40.883,69.751,42.812c4.659,0.708,7.859,5.069,7.142,9.728c-0.64,4.215-4.275,7.236-8.422,7.236
			c-0.427,0-0.862-0.034-1.306-0.094c-11.238-1.715-30.609-13.005-49.903-26.18v9.293c0,47.01,38.238,85.248,85.248,85.248H324.3
			c36.984,0,75.119-30.686,83.277-67.012c0.683-3.063,1.468-5.803,2.287-8.371c-2.645,0.546-5.367,1.109-8.192,1.681
			c-10.044,2.031-18.714,3.78-24.03,5.163c-0.717,0.196-1.442,0.273-2.15,0.273c-3.797,0-7.253-2.534-8.252-6.391
			c-1.186-4.557,1.553-9.216,6.11-10.394c5.768-1.502,14.652-3.302,24.934-5.385c6.05-1.229,14.182-2.876,22.639-4.719
			c8.96-14.916,18.935-44.578,12.041-84.437c-2.389-13.807-1.621-35.576,1.681-47.531L481.902,182.903z"/>
	</g>
</g>
</svg>