<?xml version="1.0" encoding="iso-8859-1"?>
<!-- Uploaded to: SVG Repo, www.svgrepo.com, Generator: SVG Repo Mixer Tools -->
<!DOCTYPE svg PUBLIC "-//W3C//DTD SVG 1.1//EN" "http://www.w3.org/Graphics/SVG/1.1/DTD/svg11.dtd">
<svg fill="#000000" height="800px" width="800px" version="1.1" id="Capa_1" xmlns="http://www.w3.org/2000/svg" xmlns:xlink="http://www.w3.org/1999/xlink" 
	 viewBox="0 0 305.301 305.301" xml:space="preserve">
<g>
	<path d="M122.582,89.702V67.625c-3.082-5.201-4.86-11.262-4.86-17.734c0-19.239,15.652-34.892,34.892-34.892
		c19.24,0,34.893,15.652,34.893,34.892c0,6.288-1.68,12.186-4.602,17.287v13.449c2.673,0.186,5.25,0.727,7.688,1.567
		c7.421-8.712,11.914-19.99,11.914-32.303C202.507,22.381,180.125,0,152.614,0s-49.892,22.381-49.892,49.892
		C102.723,66.135,110.529,80.586,122.582,89.702z"/>
	<path d="M68.248,155.474c0-19.239,15.652-34.892,34.892-34.892c7.193,0,13.883,2.188,19.443,5.933v-16.988
		c-5.978-2.539-12.549-3.945-19.443-3.945c-27.511,0-49.892,22.381-49.892,49.892c0,27.511,22.381,49.892,49.892,49.892
		c1.242,0,2.47-0.061,3.69-0.151L94.379,189.25C79.367,185.354,68.248,171.688,68.248,155.474z"/>
	<path d="M242.769,261.926h-90.64c-5.126,0-9.282,4.156-9.282,9.282v24.81c0,5.126,4.156,9.282,9.282,9.282h90.64
		c5.126,0,9.282-4.156,9.282-9.282v-24.81C252.051,266.082,247.895,261.926,242.769,261.926z"/>
	<path d="M144.34,228.918c7.44,11.082,19.893,17.745,33.191,17.745h29.677c24.135,0,44.131-19.28,44.811-43.582c0,0,0-0.007,0-0.01
		c0.046-1.117,0.032,2.909,0.032-20.832v-47.266c0-8.373-6.788-15.161-15.161-15.161c-5.337,0-10.171,2.815-12.888,7.205v-4.93
		c0-8.304-6.704-15.16-15.194-15.16c-5.214,0.011-10.082,2.727-12.851,7.198c0,0-0.002,0.003-0.003,0.004
		c0,0.001-0.001,0.001-0.001,0.001l0-3.414c0-8.373-6.788-15.161-15.161-15.161c-0.011,0-0.022,0.001-0.033,0.001
		c-5.151,0.011-10.051,2.679-12.85,7.195c-0.001,0.002-0.003,0.004-0.004,0.007c0-9.585,0-35.975,0-45.865
		c0-8.373-6.788-15.161-15.161-15.161c-8.373,0-15.161,6.788-15.161,15.161v114.056v0l-17.001-21.798
		c-4.966-6.363-14.362-7.939-21.279-2.631c-6.608,5.154-7.776,14.684-2.631,21.279c6.207,7.959,42.405,54.371,47.666,61.117
		L144.34,228.918z"/>
</g>
</svg>