<?xml version="1.0" standalone="no"?>
<!DOCTYPE svg PUBLIC "-//W3C//DTD SVG 20010904//EN"
 "http://www.w3.org/TR/2001/REC-SVG-20010904/DTD/svg10.dtd">
<svg version="1.0" xmlns="http://www.w3.org/2000/svg"
 width="1024.000000pt" height="1280.000000pt" viewBox="0 0 1024.000000 1280.000000"
 preserveAspectRatio="xMidYMid meet">

<g transform="translate(0.000000,1280.000000) scale(0.100000,-0.100000)"
fill="#000000" stroke="none">
<path d="M1108 10691 c-174 -5 -210 -9 -224 -22 -15 -16 -16 -88 -15 -833 1
-552 5 -825 12 -840 9 -18 22 -25 56 -30 62 -8 1572 -6 1603 3 14 4 30 18 37
31 8 18 12 242 14 838 l3 812 -21 22 -22 21 -618 2 c-340 1 -711 -1 -825 -4z
m1332 -307 c13 -13 15 -96 15 -628 0 -590 -1 -615 -19 -635 -19 -21 -22 -21
-634 -21 -559 0 -617 2 -634 17 -17 15 -18 48 -18 636 0 537 2 623 15 637 14
15 68 16 637 13 533 -4 625 -6 638 -19z"/>
<path d="M1350 10247 c-29 -10 -36 -18 -42 -52 -5 -22 -7 -203 -6 -402 3 -332
4 -364 21 -380 16 -17 47 -18 402 -18 l384 0 23 23 c23 23 23 23 26 387 3 391
-1 438 -41 449 -44 12 -730 6 -767 -7z"/>
<path d="M7858 10691 c-91 -3 -168 -8 -171 -11 -28 -32 -29 -63 -22 -859 4
-443 11 -815 15 -827 8 -19 19 -21 146 -27 173 -9 1469 -7 1509 2 23 5 33 14
42 41 9 26 12 238 12 816 1 430 -2 796 -5 813 -4 17 -16 37 -28 43 -23 13
-1198 20 -1498 9z m1237 -305 c14 -20 15 -97 13 -634 -3 -571 -4 -612 -21
-629 -17 -17 -58 -18 -634 -21 -565 -2 -617 -1 -634 14 -18 16 -19 46 -19 634
0 477 3 620 13 633 13 18 45 19 904 25 l363 2 15 -24z"/>
<path d="M8157 10253 c-57 -9 -58 -13 -55 -436 3 -355 4 -388 21 -404 16 -17
46 -18 365 -19 191 -1 367 1 392 5 71 10 73 17 77 351 4 355 -3 466 -28 491
-18 18 -40 19 -381 18 -200 -1 -375 -4 -391 -6z"/>
<path d="M3220 10683 c-32 -11 -40 -37 -40 -129 0 -111 11 -141 54 -149 17 -4
131 -5 252 -3 255 3 257 4 269 88 9 68 -4 159 -26 181 -18 18 -37 19 -256 18
-131 0 -245 -3 -253 -6z"/>
<path d="M3929 10671 c-22 -18 -23 -25 -27 -202 -2 -102 -9 -190 -14 -196 -8
-10 -58 -13 -190 -13 -178 0 -179 0 -204 -25 -25 -25 -26 -30 -22 -125 4 -133
5 -134 148 -138 138 -5 140 -7 140 -137 0 -108 12 -137 60 -146 56 -12 330 2
345 17 10 10 13 108 17 435 2 233 1 445 -2 472 -9 69 -24 77 -136 77 -75 0
-96 -3 -115 -19z"/>
<path d="M5076 10668 c-12 -17 -16 -48 -16 -128 0 -58 4 -111 9 -118 4 -8 26
-16 47 -19 32 -4 43 -1 59 17 17 19 20 36 20 130 0 124 -7 140 -66 140 -28 0
-42 -6 -53 -22z"/>
<path d="M5514 10676 c-18 -13 -19 -28 -19 -196 0 -226 -4 -220 146 -220 110
0 113 2 138 82 19 57 32 63 139 61 146 -2 142 -6 142 132 0 166 19 155 -283
155 -194 0 -247 -3 -263 -14z"/>
<path d="M6529 10671 c-24 -19 -24 -22 -24 -200 0 -127 4 -184 12 -192 7 -7
54 -14 112 -17 120 -6 142 4 160 70 18 72 19 72 138 78 59 3 114 9 120 13 23
14 35 87 28 161 -11 111 2 106 -280 106 -224 0 -245 -1 -266 -19z"/>
<path d="M4823 10393 c-32 -6 -53 -41 -53 -89 l0 -41 126 -2 c84 -1 130 2 140
10 8 7 14 30 14 60 0 38 -4 51 -19 59 -19 10 -162 12 -208 3z"/>
<path d="M6090 10390 c-12 -8 -15 -41 -15 -194 0 -165 2 -187 18 -203 16 -16
36 -18 195 -15 146 2 179 5 189 18 15 20 26 169 15 214 -7 33 -10 35 -60 40
-28 3 -56 10 -62 16 -5 5 -14 32 -19 59 -5 27 -17 55 -27 62 -21 15 -211 18
-234 3z"/>
<path d="M4537 10252 c-47 -6 -59 -39 -55 -146 4 -129 7 -131 143 -131 137 0
138 1 143 139 3 60 0 112 -6 122 -9 16 -24 19 -104 19 -51 1 -105 -1 -121 -3z"/>
<path d="M5077 10248 c-15 -9 -23 -188 -10 -238 8 -31 14 -35 44 -38 46 -4 68
15 80 68 12 52 2 185 -15 199 -15 12 -83 19 -99 9z"/>
<path d="M2922 10242 c-7 -5 -17 -24 -22 -43 -15 -52 -12 -1434 3 -1479 11
-32 16 -35 62 -43 51 -7 152 -1 173 11 27 18 32 72 32 372 0 267 2 311 16 324
12 13 39 16 128 16 143 0 141 -2 141 136 0 135 1 135 -145 142 -101 4 -113 7
-126 27 -12 18 -14 66 -12 257 3 301 9 288 -135 288 -56 0 -108 -4 -115 -8z"/>
<path d="M7114 10236 c-16 -12 -20 -32 -25 -126 -5 -75 -11 -117 -21 -126 -14
-14 -127 -21 -410 -23 -149 -1 -148 0 -148 -129 0 -153 9 -146 -205 -153 -187
-6 -209 -10 -220 -37 -13 -34 -17 -148 -6 -188 13 -49 27 -54 162 -54 88 0
118 -11 119 -43 1 -7 2 -62 4 -123 2 -62 6 -117 10 -123 10 -15 89 -14 104 1
8 8 12 48 12 114 0 101 10 151 33 166 7 4 123 8 258 8 191 0 249 3 264 14 15
11 19 32 24 122 9 155 8 154 134 153 116 -1 135 4 148 38 5 13 9 129 9 258 0
199 -2 236 -16 249 -21 22 -201 23 -230 2z"/>
<path d="M4830 9962 c-54 -8 -58 -18 -59 -153 -1 -59 -6 -101 -13 -112 -11
-14 -45 -17 -270 -19 -231 -3 -259 -5 -275 -21 -15 -15 -18 -35 -18 -128 0
-87 3 -112 15 -119 17 -11 356 -16 723 -11 234 4 249 3 262 -15 11 -15 14 -47
12 -136 -1 -85 2 -121 11 -130 19 -19 240 -17 253 3 5 8 9 129 9 270 0 227 -2
258 -17 270 -12 11 -61 14 -201 15 -167 1 -187 3 -199 20 -9 12 -13 53 -13
130 0 78 -4 115 -13 122 -16 14 -148 22 -207 14z"/>
<path d="M5552 9961 c-53 -14 -57 -23 -57 -136 0 -138 2 -140 136 -140 92 0
102 2 119 23 10 12 21 40 25 62 8 50 -3 153 -18 174 -14 18 -155 29 -205 17z"/>
<path d="M3528 9383 c-53 -9 -53 -3 -56 -467 -2 -237 0 -445 3 -463 10 -56 25
-63 141 -63 137 0 144 -6 144 -122 0 -143 19 -175 96 -166 36 4 44 36 43 166
-1 60 3 97 11 107 10 12 39 15 136 15 160 0 159 1 148 -164 -4 -65 -12 -120
-18 -125 -6 -5 -58 -11 -116 -14 -58 -2 -113 -8 -123 -12 -23 -10 -31 -43 -31
-147 -1 -117 1 -119 143 -126 123 -5 134 -11 147 -79 3 -18 12 -37 18 -42 18
-15 143 -24 196 -14 43 8 45 10 56 54 22 89 17 86 156 85 120 -1 123 -1 135
-26 7 -14 13 -44 13 -66 l0 -42 73 -6 c66 -6 180 4 192 16 3 2 9 26 14 51 12
65 25 77 82 77 56 0 67 -12 76 -90 5 -47 7 -50 41 -56 20 -4 140 -4 268 -1
185 4 236 2 251 -8 16 -12 18 -29 18 -134 0 -85 4 -124 13 -133 10 -10 68 -13
252 -12 131 1 250 4 264 8 19 5 27 15 33 44 11 52 6 203 -7 216 -7 7 -54 10
-130 9 -113 -3 -120 -1 -135 19 -8 13 -15 41 -15 64 0 24 -6 47 -15 54 -11 9
-80 11 -271 9 l-256 -3 -19 23 c-18 22 -19 46 -19 411 0 355 -1 390 -17 409
-16 17 -34 21 -130 27 -62 4 -117 12 -122 18 -5 6 -11 98 -13 204 -4 208 -5
212 -59 212 -15 0 -37 -9 -50 -19 l-24 -19 -3 -475 c-2 -390 -5 -477 -16 -487
-10 -7 -97 -12 -281 -13 -256 -2 -268 -1 -281 18 -10 14 -14 53 -14 136 0 149
4 154 117 145 108 -8 144 1 165 44 16 31 18 67 18 280 0 241 -9 353 -30 374
-7 7 -54 11 -115 11 -146 0 -139 10 -143 -220 -3 -139 -7 -187 -17 -195 -9 -8
-117 -11 -351 -12 -313 0 -339 2 -351 18 -10 13 -13 67 -13 205 0 214 2 219
74 219 52 0 71 -18 85 -79 5 -24 14 -48 21 -55 14 -14 177 -21 211 -8 41 16
52 78 43 248 -3 78 -10 148 -15 156 -7 10 -69 13 -311 14 -167 1 -315 0 -330
-3z"/>
<path d="M5833 9379 c-41 -12 -48 -35 -48 -162 0 -74 3 -100 14 -107 38 -23
204 -23 241 0 11 7 16 37 18 122 5 147 3 149 -109 154 -46 2 -99 -1 -116 -7z"/>
<path d="M5530 9091 c-21 -6 -26 -14 -28 -46 -5 -69 8 -77 135 -78 66 -1 116
2 122 8 19 19 26 106 10 116 -16 10 -202 10 -239 0z"/>
<path d="M6135 9093 c-42 -7 -52 -18 -59 -68 -10 -64 -22 -69 -146 -70 -71 0
-112 -4 -122 -13 -13 -10 -16 -68 -23 -365 -4 -194 -4 -374 0 -400 11 -72 20
-77 144 -77 148 0 146 3 146 -149 0 -76 4 -124 11 -131 8 -8 52 -12 123 -11
131 1 144 -7 155 -86 7 -54 18 -63 77 -63 14 0 34 -6 45 -14 17 -13 19 -27 19
-130 0 -77 4 -119 12 -127 9 -9 48 -12 126 -11 62 0 118 -2 123 -6 25 -16 33
-51 27 -123 -7 -102 10 -150 57 -162 45 -12 175 -4 194 12 23 19 39 106 32
173 -6 45 -4 65 8 83 l15 23 262 0 c154 0 265 4 271 10 21 21 27 93 21 230 -4
90 -11 149 -19 160 -10 14 -29 17 -117 17 -120 0 -132 -6 -141 -69 -11 -73 -8
-72 -304 -72 -249 1 -264 2 -278 20 -8 11 -14 32 -14 47 0 15 -9 37 -19 50
-18 22 -26 24 -125 24 -139 0 -139 0 -147 145 -6 119 -15 140 -61 140 -17 0
-38 9 -52 23 -20 20 -24 36 -28 131 -4 78 -10 113 -21 124 -12 12 -39 15 -119
14 -149 -1 -148 -2 -148 149 0 66 5 129 10 140 10 18 23 19 204 19 158 0 196
3 206 15 15 19 24 158 13 210 -9 39 -10 40 -55 43 -58 4 -79 26 -86 91 -4 45
-7 49 -34 55 -33 6 -134 6 -183 -1z"/>
<path d="M6570 9093 c-19 -3 -41 -9 -47 -15 -15 -12 -18 -94 -4 -102 5 -4 57
-7 115 -8 118 -2 129 3 141 59 5 25 2 36 -14 52 -18 18 -32 21 -88 19 -38 0
-84 -3 -103 -5z"/>
<path d="M7109 9079 c-17 -17 -20 -29 -15 -57 3 -19 10 -40 16 -46 6 -6 54
-10 109 -11 117 0 131 8 131 71 0 57 -15 64 -129 64 -79 0 -94 -3 -112 -21z"/>
<path d="M916 8660 c-16 -5 -33 -15 -37 -22 -5 -7 -9 -56 -9 -109 0 -136 3
-140 143 -141 139 -2 141 0 141 120 0 122 -6 139 -52 151 -44 13 -145 13 -186
1z"/>
<path d="M1355 8661 c-43 -9 -55 -42 -55 -147 0 -110 -12 -132 -78 -141 -32
-4 -46 -11 -51 -27 -15 -39 -21 -167 -11 -206 10 -36 12 -38 60 -42 77 -8 79
-12 79 -150 -1 -79 3 -124 10 -131 9 -9 111 -13 354 -15 339 -3 449 1 477 18
13 8 15 53 16 275 1 192 5 270 13 278 9 8 67 12 197 12 230 0 224 -4 224 140
0 76 -3 97 -19 116 l-19 24 -584 2 c-320 0 -596 -2 -613 -6z m509 -287 c18
-18 18 -16 16 -154 -1 -77 -5 -109 -16 -120 -21 -21 -229 -24 -261 -4 -22 14
-23 21 -23 135 0 66 5 129 10 140 10 17 22 19 135 19 99 0 127 -3 139 -16z"/>
<path d="M6572 8661 c-24 -4 -48 -14 -53 -22 -20 -31 -15 -193 7 -226 13 -21
22 -23 119 -23 135 0 135 0 135 134 0 66 -4 108 -12 119 -15 19 -129 30 -196
18z"/>
<path d="M7148 8663 c-47 -8 -58 -36 -58 -149 0 -80 3 -104 16 -115 10 -9 48
-13 114 -13 112 -1 126 6 140 69 11 49 -2 172 -21 190 -15 15 -142 27 -191 18z"/>
<path d="M7722 8660 c-42 -10 -43 -11 -53 -62 -19 -99 -6 -744 16 -774 8 -12
18 -14 45 -7 48 13 61 45 64 158 2 59 8 100 16 110 10 12 36 15 130 15 96 0
120 3 131 16 10 12 14 50 14 129 0 80 4 117 14 128 11 14 34 17 137 17 156 0
154 2 154 -155 0 -73 4 -115 12 -123 8 -8 51 -12 129 -12 155 0 152 4 147
-151 -2 -89 -7 -122 -18 -133 -11 -11 -45 -15 -132 -17 -159 -3 -158 -4 -158
145 0 61 -5 118 -10 126 -7 11 -30 15 -97 15 -110 0 -141 -8 -153 -41 -6 -14
-10 -101 -10 -193 0 -208 5 -201 -133 -201 -154 0 -161 -7 -161 -158 0 -124
-17 -117 296 -118 242 -1 262 -2 274 -19 10 -13 14 -51 14 -120 0 -144 1 -145
141 -145 148 0 149 -1 149 -153 0 -106 -2 -115 -23 -135 -21 -20 -34 -22 -123
-22 -138 0 -137 0 -144 -139 -4 -87 -9 -114 -23 -128 -15 -16 -42 -18 -260
-19 -133 0 -252 -4 -264 -8 -17 -5 -24 -18 -29 -52 -8 -57 -30 -83 -74 -90
-27 -4 -42 -1 -63 16 -23 18 -27 29 -27 69 0 57 16 76 78 90 24 5 46 12 49 14
9 10 21 137 16 177 -4 27 0 47 11 65 16 24 20 25 126 25 127 0 143 8 155 79 9
55 -3 158 -22 176 -11 11 -41 15 -127 15 -93 0 -116 3 -127 17 -10 11 -15 52
-17 131 -1 66 -7 121 -13 129 -13 15 -67 17 -89 3 -11 -7 -16 -37 -20 -129 -3
-79 -9 -124 -18 -133 -8 -8 -52 -15 -123 -18 -145 -7 -149 -11 -149 -151 0
-152 40 -139 -443 -139 -324 0 -407 3 -422 14 -17 12 -18 32 -19 277 -1 145
-5 270 -9 277 -11 17 -82 15 -100 -3 -11 -10 -18 -49 -23 -126 -9 -147 -11
-149 -143 -149 -133 0 -142 -8 -149 -116 -3 -57 0 -89 11 -116 14 -34 19 -37
69 -43 29 -3 80 -4 114 -3 87 4 94 -4 94 -111 0 -112 13 -159 48 -172 18 -7
85 -8 193 -4 210 9 200 19 192 -169 -6 -140 0 -213 20 -239 15 -21 106 -32
181 -23 72 9 79 22 78 150 -1 147 -2 146 152 146 158 0 156 2 156 -144 0 -102
-8 -141 -34 -158 -6 -4 -52 -8 -103 -8 -150 0 -157 -7 -158 -163 0 -67 3 -90
15 -97 8 -5 66 -10 128 -10 154 0 155 -2 150 -157 -4 -151 -6 -152 -159 -152
-148 0 -149 1 -149 152 0 75 -4 117 -12 125 -9 9 -82 12 -268 12 -206 0 -260
3 -276 14 -18 14 -19 29 -19 253 0 245 -5 286 -33 300 -20 9 -848 17 -909 8
-38 -6 -43 -10 -53 -43 -14 -52 -12 -428 3 -472 10 -29 18 -36 54 -43 23 -4
75 -4 115 0 67 7 74 10 87 37 9 19 13 63 13 122 0 58 5 99 12 110 11 15 42 17
276 18 330 2 306 13 302 -151 -3 -88 -7 -122 -19 -135 -13 -15 -46 -17 -269
-20 -190 -2 -256 -6 -266 -16 -8 -8 -15 -52 -18 -121 -7 -147 -8 -148 -150
-153 -144 -4 -145 -5 -145 -143 0 -72 4 -108 13 -117 19 -19 515 -19 534 0 9
9 15 53 18 131 3 79 10 123 19 135 11 13 32 16 132 13 80 -1 122 -6 131 -15 9
-9 15 -54 18 -132 6 -139 15 -157 71 -143 46 12 68 69 68 179 1 53 5 85 14 92
18 16 253 20 268 5 9 -9 13 -67 14 -195 1 -101 5 -190 9 -200 10 -22 37 -28
132 -28 95 0 114 11 132 75 21 70 4 66 285 68 231 2 258 4 274 20 15 14 19 40
23 135 3 64 9 123 13 130 6 9 59 12 206 12 240 0 231 5 231 -121 0 -88 13
-153 32 -166 7 -4 60 -6 119 -5 86 2 111 -1 123 -14 14 -13 16 -59 16 -349 0
-295 2 -335 16 -350 15 -14 48 -16 277 -14 242 2 261 1 274 -16 9 -13 13 -52
13 -128 0 -133 6 -147 65 -147 65 0 75 -20 75 -147 0 -138 5 -143 135 -143
118 0 130 9 140 103 4 35 5 211 4 390 -4 288 -6 328 -21 343 -13 13 -42 18
-133 22 -93 4 -117 8 -124 21 -5 9 -11 67 -14 129 -2 63 -9 118 -14 123 -6 6
-32 13 -59 17 -54 8 -74 31 -74 89 0 46 -21 53 -149 53 -142 0 -141 -1 -138
161 2 81 6 121 16 133 11 13 34 16 132 16 159 0 159 0 159 -154 0 -128 3 -134
70 -143 47 -7 70 -32 70 -78 0 -16 4 -36 9 -43 11 -19 154 -27 208 -13 39 11
42 14 52 62 18 83 9 314 -13 336 -4 5 -59 10 -121 13 -74 3 -119 10 -127 18
-10 10 -14 78 -18 271 -6 291 -6 291 -75 291 -58 0 -70 17 -70 104 -2 186 -2
186 -154 186 -75 0 -112 4 -119 13 -21 25 -24 83 -8 116 l17 31 109 0 c144 0
141 -3 154 167 4 39 9 78 12 86 3 8 28 23 56 33 63 23 76 52 77 170 1 48 6 87
14 96 9 13 36 17 124 20 64 2 117 8 123 14 32 32 34 219 3 250 -11 10 -42 14
-116 14 -56 0 -107 4 -113 8 -31 20 -34 54 -34 371 0 361 2 351 -74 351 -24 0
-48 6 -54 13 -6 7 -14 124 -18 274 -7 192 -12 265 -22 275 -10 10 -133 13
-595 15 -320 1 -597 -2 -615 -7z m1226 -1018 c8 -11 12 -54 12 -129 0 -153 0
-153 -154 -153 -81 0 -117 4 -124 13 -6 7 -14 66 -17 130 -5 113 -5 118 18
141 22 22 28 22 137 18 90 -3 118 -7 128 -20z m-578 -1292 c18 -18 20 -33 20
-128 0 -150 -2 -148 143 -144 151 3 147 7 147 -146 0 -165 3 -162 -155 -162
-157 0 -155 -2 -155 157 0 137 3 135 -146 132 -139 -3 -138 -4 -139 142 -2
150 0 153 105 160 159 10 159 10 180 -11z"/>
<path d="M2964 8373 c-56 -7 -66 -29 -69 -149 -2 -76 -7 -111 -18 -121 -11
-11 -53 -15 -196 -16 -175 -2 -184 -3 -201 -24 -21 -27 -33 -123 -24 -193 6
-43 11 -53 33 -62 34 -15 583 -11 628 3 49 16 55 54 51 310 -2 178 -6 221 -18
233 -16 15 -131 27 -186 19z"/>
<path d="M6830 8367 c-20 -10 -27 -23 -34 -70 -10 -68 0 -161 19 -181 18 -17
129 -30 190 -21 59 9 69 28 70 135 0 105 -8 136 -37 144 -41 11 -182 6 -208
-7z"/>
<path d="M9167 8373 c-48 -8 -58 -37 -55 -159 l3 -109 105 -3 c139 -4 147 -1
161 51 14 51 4 186 -15 205 -14 14 -147 24 -199 15z"/>
<path d="M930 8083 c-57 -11 -60 -21 -60 -203 0 -214 -3 -209 130 -216 128 -7
136 -9 147 -41 13 -37 1 -229 -15 -245 -7 -7 -53 -13 -115 -16 -144 -5 -147
-7 -147 -130 0 -137 1 -138 142 -144 149 -8 152 -10 146 -161 -6 -140 -5 -139
-148 -146 -95 -5 -114 -9 -126 -25 -11 -16 -14 -77 -14 -322 0 -202 4 -311 11
-328 7 -15 23 -26 41 -30 51 -10 283 -7 316 5 38 13 52 54 51 144 -2 99 -7
109 -63 116 -34 4 -54 12 -67 28 -23 28 -25 88 -3 119 15 22 17 22 202 16 103
-4 192 -11 199 -16 7 -5 19 -32 28 -59 9 -27 26 -54 37 -60 13 -7 99 -9 261
-5 133 3 248 6 255 6 18 0 16 85 -4 104 -12 13 -39 16 -124 16 -136 0 -136 0
-143 153 -3 63 -10 113 -17 122 -10 12 -38 15 -125 15 -146 0 -142 -3 -147
156 -2 92 0 125 11 137 11 14 34 17 136 17 158 0 157 1 159 -148 1 -77 5 -114
15 -126 13 -15 64 -16 632 -14 339 2 621 7 625 11 14 14 18 212 5 236 -11 20
-19 21 -131 21 -152 0 -150 -2 -150 158 0 62 5 122 10 133 10 17 22 19 128 19
163 0 162 1 162 -144 0 -81 4 -118 14 -132 14 -18 28 -19 270 -19 308 0 289
-8 290 127 0 51 -3 105 -7 121 l-7 27 -124 0 c-158 0 -153 -5 -158 158 -2 95
-6 125 -18 132 -9 6 -194 9 -483 8 -547 -3 -497 9 -497 -125 0 -87 18 -153 42
-153 38 0 86 -22 96 -44 15 -35 4 -226 -16 -248 -13 -16 -37 -18 -207 -18
-144 0 -195 3 -203 13 -7 8 -12 111 -14 279 -2 203 -6 270 -16 280 -10 10
-100 13 -417 14 -316 0 -407 3 -419 13 -11 9 -16 30 -16 66 0 59 -7 65 -69 65
-62 0 -71 19 -71 148 0 140 -2 142 -113 141 -45 -1 -93 -4 -107 -6z"/>
<path d="M7162 8080 c-29 -3 -57 -12 -62 -19 -14 -23 -22 -119 -15 -172 11
-81 26 -91 126 -91 102 1 136 12 145 46 11 47 0 204 -16 219 -18 17 -104 25
-178 17z"/>
<path d="M2217 7793 c-34 -5 -49 -33 -45 -81 l3 -37 83 -9 c114 -11 170 -2
183 30 13 35 11 78 -3 92 -12 12 -155 15 -221 5z"/>
<path d="M3523 7793 c-46 -9 -71 -86 -38 -113 9 -8 60 -15 130 -18 85 -3 118
-9 127 -20 8 -9 15 -60 18 -133 3 -64 8 -121 12 -124 4 -4 25 -8 47 -9 70 -1
73 6 73 213 1 131 -3 185 -12 196 -10 12 -41 15 -174 14 -88 -1 -171 -4 -183
-6z"/>
<path d="M4518 7648 c-34 -12 -42 -46 -37 -157 6 -112 11 -116 145 -115 140 2
139 1 139 145 0 138 -1 139 -129 138 -50 0 -103 -5 -118 -11z"/>
<path d="M5079 7634 c-16 -19 -24 -166 -12 -214 9 -33 11 -35 54 -35 40 0 45
3 61 35 20 39 25 161 8 204 -8 23 -15 26 -54 26 -27 0 -48 -6 -57 -16z"/>
<path d="M5543 7360 c-22 -7 -34 -19 -42 -42 -14 -40 -13 -143 2 -188 14 -40
33 -47 142 -49 86 -1 108 11 125 74 16 56 8 171 -13 192 -18 18 -167 27 -214
13z"/>
<path d="M3930 7350 c-11 -7 -16 -37 -20 -126 -5 -107 -7 -117 -29 -135 -14
-11 -39 -19 -62 -19 -33 0 -41 -4 -49 -26 -15 -38 -12 -590 3 -634 10 -28 19
-36 56 -47 67 -19 71 -26 71 -112 0 -83 12 -147 30 -165 7 -7 53 -11 120 -11
144 0 144 0 145 -142 1 -60 5 -115 9 -124 4 -9 24 -19 44 -23 20 -3 226 -6
457 -6 318 0 426 3 445 13 14 7 30 28 37 47 15 43 17 447 3 484 -8 23 -15 26
-54 26 -27 0 -48 -6 -56 -15 -8 -9 -15 -61 -19 -131 -5 -99 -9 -118 -25 -130
-26 -18 -236 -20 -254 -2 -7 7 -12 42 -13 83 0 100 -13 166 -35 182 -14 10
-75 13 -265 13 l-248 0 -19 25 c-11 14 -23 41 -26 60 -4 19 -15 39 -26 45 -10
5 -63 10 -117 10 -54 0 -105 5 -113 10 -11 7 -16 38 -21 127 -6 115 1 160 25
165 6 2 120 3 253 3 239 0 243 0 265 23 21 21 23 32 23 123 0 128 -1 129 -142
129 -136 0 -143 6 -143 123 0 88 -12 146 -32 159 -18 11 -200 10 -218 -2z"/>
<path d="M4804 7350 c-14 -6 -23 -21 -27 -47 -4 -21 -7 -232 -7 -469 0 -356 2
-434 14 -450 13 -17 26 -19 126 -18 72 1 115 5 123 13 8 8 13 70 15 195 4 205
3 204 77 228 54 18 70 52 68 145 -2 92 -13 111 -63 119 -70 11 -74 18 -80 151
-3 65 -9 124 -13 131 -9 14 -198 16 -233 2z"/>
<path d="M5569 6782 c-58 -5 -72 -29 -77 -130 -5 -118 3 -138 65 -147 67 -10
149 -8 173 5 33 18 53 106 41 181 -6 34 -16 68 -23 75 -14 12 -120 22 -179 16z"/>
<path d="M3204 6766 c-16 -12 -20 -31 -24 -130 -3 -69 -10 -120 -17 -127 -7
-7 -52 -13 -115 -14 -57 -1 -111 -5 -120 -9 -10 -5 -23 -27 -29 -49 -15 -57
-8 -319 9 -340 16 -18 133 -32 192 -22 55 9 70 44 70 157 0 121 6 128 125 128
122 0 141 8 156 62 15 58 8 320 -10 342 -18 22 -207 23 -237 2z"/>
<path d="M5264 6493 c-38 -7 -56 -37 -52 -84 l3 -44 113 -3 c142 -3 152 1 152
72 0 40 -4 55 -16 60 -17 7 -166 6 -200 -1z"/>
<path d="M2476 6471 c-12 -13 -16 -32 -14 -62 3 -44 3 -44 43 -47 51 -3 64 6
75 51 5 26 4 42 -7 56 -18 27 -73 28 -97 2z"/>
<path d="M9144 6480 c-14 -6 -23 -21 -27 -47 -10 -60 -8 -312 3 -332 7 -15 27
-20 94 -26 119 -10 150 2 165 60 21 84 7 328 -20 346 -18 11 -187 11 -215 -1z"/>
<path d="M2179 6328 c-17 -31 -17 -176 0 -215 10 -25 21 -34 48 -39 55 -10
184 2 201 20 21 20 31 219 12 241 -10 12 -37 15 -131 15 -111 0 -119 -1 -130
-22z"/>
<path d="M1631 6047 c-15 -7 -28 -26 -34 -47 -13 -51 -3 -178 16 -197 19 -19
97 -28 171 -18 73 9 81 23 80 144 -1 122 -10 131 -128 131 -44 0 -92 -6 -105
-13z"/>
<path d="M2484 6046 c-16 -12 -19 -29 -22 -118 -5 -147 -10 -142 175 -146 185
-4 218 4 234 57 16 53 8 199 -11 211 -8 5 -92 10 -186 10 -131 0 -175 -3 -190
-14z"/>
<path d="M3523 6054 c-48 -11 -48 -12 -48 -425 0 -359 1 -390 18 -406 16 -16
45 -18 315 -21 186 -2 307 1 324 7 43 16 49 63 46 316 -2 123 -7 227 -11 232
-5 4 -96 10 -203 13 -158 4 -197 8 -204 20 -5 8 -10 47 -10 85 -1 79 -13 152
-27 166 -11 11 -165 20 -200 13z"/>
<path d="M1194 5760 c-12 -4 -24 -15 -27 -23 -5 -14 -9 -123 -8 -209 1 -42 9
-45 72 -28 30 8 38 17 47 49 16 51 15 160 -1 191 -13 27 -47 35 -83 20z"/>
<path d="M1904 5756 c-17 -13 -19 -27 -19 -125 0 -77 4 -114 13 -123 10 -10
66 -14 215 -16 246 -4 302 1 319 31 18 31 17 209 -1 230 -12 15 -43 17 -260
17 -198 0 -251 -3 -267 -14z"/>
<path d="M903 5470 c-12 -5 -25 -19 -28 -32 -3 -13 -4 -292 -3 -620 2 -451 6
-600 15 -609 16 -16 157 -24 203 -12 27 7 38 17 47 44 9 25 12 197 12 637 l1
602 -112 -1 c-62 0 -123 -4 -135 -9z"/>
<path d="M1619 5461 c-22 -17 -24 -28 -27 -118 -4 -131 -2 -134 114 -140 115
-6 139 3 155 59 11 43 8 186 -6 207 -4 7 -47 11 -109 11 -87 0 -108 -3 -127
-19z"/>
<path d="M2497 5473 c-10 -2 -22 -16 -28 -29 -12 -33 -12 -140 1 -186 11 -37
16 -41 78 -53 43 -9 65 -43 57 -89 -9 -43 -28 -61 -82 -75 -50 -14 -63 -42
-63 -142 0 -94 10 -116 57 -125 79 -13 83 -20 83 -149 0 -132 -8 -148 -80
-160 -52 -9 -60 -28 -60 -135 0 -88 10 -124 37 -135 10 -4 98 -6 195 -6 208 2
198 8 198 -116 1 -89 13 -152 32 -165 20 -14 215 -5 230 10 10 10 14 82 18
277 4 189 8 268 17 276 9 9 46 12 120 10 138 -3 141 -1 149 104 8 99 -6 160
-39 169 -12 3 -66 6 -119 6 -129 0 -128 -1 -128 146 0 64 5 124 10 135 10 17
22 19 110 19 54 0 110 4 124 10 30 11 51 72 35 101 -9 18 -27 19 -273 19 -233
0 -265 2 -277 17 -9 10 -16 55 -20 130 -3 69 -10 118 -18 126 -12 12 -324 21
-364 10z"/>
<path d="M4832 5473 c-38 -7 -52 -43 -59 -148 -8 -131 -13 -135 -136 -134
-114 2 -132 -3 -146 -43 -14 -39 -14 -298 -1 -333 13 -34 50 -46 143 -46 59 0
84 4 97 16 25 22 40 90 40 177 0 44 5 79 12 86 9 9 99 12 343 12 181 0 336 4
343 9 9 5 12 25 10 62 l-3 54 -196 3 c-164 2 -199 5 -210 18 -7 9 -16 60 -20
122 -8 124 -13 138 -42 146 -24 6 -139 6 -175 -1z"/>
<path d="M1338 5183 c-30 -8 -40 -70 -36 -232 4 -187 -1 -181 142 -181 56 0
108 5 116 10 12 7 16 43 18 189 2 119 0 186 -8 200 -10 19 -19 21 -113 20 -56
-1 -110 -3 -119 -6z"/>
<path d="M6097 5178 c-24 -18 -31 -69 -13 -93 12 -17 28 -20 116 -23 84 -3
104 -1 120 13 25 22 37 94 19 106 -22 14 -223 11 -242 -3z"/>
<path d="M7676 5158 c-3 -13 -7 -164 -10 -337 -5 -274 -8 -316 -22 -332 -16
-17 -48 -19 -565 -21 -373 -2 -551 -6 -559 -14 -17 -17 -24 -136 -10 -193 10
-42 18 -54 39 -63 16 -6 121 -8 269 -6 231 3 244 2 258 -17 10 -13 14 -50 14
-131 0 -165 22 -153 -293 -156 -243 -3 -260 -4 -273 -22 -19 -27 -18 -70 4
-89 15 -14 40 -17 129 -17 91 0 113 -3 124 -17 10 -11 15 -53 17 -132 2 -64 8
-122 14 -128 7 -9 47 -13 134 -13 112 0 124 -2 134 -19 5 -11 10 -72 10 -135
0 -155 -1 -156 -149 -156 -86 0 -113 -3 -125 -16 -14 -13 -16 -52 -16 -269 0
-238 1 -255 19 -264 11 -6 112 -9 260 -7 207 2 244 5 258 19 12 12 18 44 23
130 3 73 11 121 19 131 11 13 35 16 126 16 88 0 115 3 125 15 7 9 15 59 18
125 3 63 10 117 17 127 11 15 35 17 210 16 131 -1 201 -5 209 -13 6 -6 13 -62
16 -130 3 -72 10 -124 17 -131 17 -17 218 -18 235 -1 8 8 15 53 19 125 5 105
13 146 28 148 3 0 56 1 118 2 73 2 117 7 125 15 7 7 14 56 17 126 4 74 11 120
19 128 10 10 85 13 337 13 397 0 371 -11 369 147 -2 142 5 138 -224 138 -153
0 -179 2 -191 17 -11 12 -14 57 -14 187 -1 94 -4 181 -8 193 -7 18 -18 23 -73
29 -36 3 -89 3 -117 -2 -73 -13 -77 -24 -77 -219 0 -214 7 -205 -155 -205
-117 0 -125 1 -139 22 -14 19 -16 70 -16 350 0 313 -1 328 -19 338 -11 5 -66
10 -123 10 -150 0 -144 -9 -147 206 -2 71 -13 78 -147 84 -150 6 -144 -2 -144
212 0 195 -4 208 -65 208 -38 0 -45 -3 -49 -22z m410 -979 c12 -9 14 -70 14
-347 0 -298 -2 -337 -17 -354 -15 -17 -39 -18 -354 -18 -294 0 -340 2 -353 16
-14 13 -16 59 -16 348 0 338 2 357 38 367 6 2 161 3 343 2 235 -1 335 -5 345
-14z"/>
<path d="M7690 3870 c-22 -22 -26 -60 -10 -91 8 -14 21 -19 50 -19 44 0 60 18
60 69 0 57 -60 81 -100 41z"/>
<path d="M3963 5043 c-52 -11 -53 -19 -53 -420 0 -204 -4 -383 -9 -396 -10
-25 -55 -47 -97 -47 -37 0 -46 -31 -42 -142 5 -152 -43 -139 515 -136 399 3
465 5 473 18 30 48 19 222 -16 247 -13 10 -82 13 -270 13 -307 0 -284 -13
-284 161 0 93 3 119 16 130 11 9 45 12 118 10 89 -2 105 0 127 17 23 19 24 26
24 131 0 88 -3 114 -15 121 -8 5 -66 10 -127 10 -139 0 -139 0 -145 148 -6
131 -11 136 -116 139 -42 0 -87 -1 -99 -4z"/>
<path d="M5523 5040 c-28 -11 -37 -58 -31 -158 7 -105 16 -112 158 -112 94 0
109 -2 125 -20 17 -18 17 -42 11 -382 -7 -372 -3 -431 30 -455 12 -9 52 -13
115 -13 78 0 99 3 110 17 11 12 15 76 19 277 3 144 9 267 13 274 6 9 58 12
201 12 167 0 195 2 207 16 15 18 20 214 7 247 -7 15 -26 17 -201 17 -172 0
-196 2 -209 18 -12 13 -17 46 -20 135 -2 91 -7 120 -18 127 -19 12 -487 12
-517 0z"/>
<path d="M6552 5043 c-12 -2 -28 -14 -34 -26 -14 -25 -18 -220 -5 -233 4 -5
53 -10 107 -12 79 -4 105 -1 124 12 55 36 60 226 6 253 -24 12 -147 16 -198 6z"/>
<path d="M1630 4754 c-33 -13 -40 -38 -40 -135 0 -137 -5 -142 -145 -149 -98
-5 -109 -7 -127 -30 -17 -21 -19 -37 -16 -121 2 -64 8 -102 17 -113 13 -15 39
-17 262 -14 223 3 250 5 266 21 16 15 18 41 21 204 4 191 -2 297 -18 323 -7
11 -34 16 -107 17 -54 1 -105 0 -113 -3z"/>
<path d="M2189 4739 c-19 -19 -20 -30 -17 -125 4 -137 6 -139 138 -139 134 0
135 1 135 144 0 143 1 141 -131 141 -92 0 -106 -2 -125 -21z"/>
<path d="M5092 4752 c-46 -30 -40 -236 8 -262 26 -14 65 -13 78 3 28 34 25
222 -5 252 -16 16 -60 20 -81 7z"/>
<path d="M3490 4450 c-17 -17 -20 -33 -20 -104 0 -98 13 -144 43 -151 51 -13
194 -10 216 4 35 23 31 232 -6 259 -11 7 -52 12 -115 12 -85 0 -101 -3 -118
-20z"/>
<path d="M5231 4461 c-17 -11 -30 -83 -30 -169 -1 -35 -5 -72 -11 -82 -5 -10
-32 -26 -59 -35 -27 -9 -52 -24 -56 -33 -4 -9 -9 -53 -11 -97 -10 -156 -9
-155 -159 -155 -107 0 -115 -1 -126 -21 -17 -32 4 -95 34 -103 12 -3 68 -6
124 -6 87 0 104 -3 112 -17 5 -10 11 -133 13 -274 4 -277 6 -289 57 -289 57 0
81 52 81 175 0 121 -16 115 299 115 l268 0 11 -25 c7 -14 12 -72 12 -128 0
-56 5 -109 10 -117 8 -13 50 -15 272 -17 239 -1 263 -3 275 -19 8 -11 13 -52
14 -113 2 -134 7 -155 42 -159 66 -8 97 53 97 187 0 96 7 101 125 101 52 0
105 4 119 10 30 11 40 51 40 158 -1 108 3 106 -217 110 -100 3 -189 8 -199 13
-14 7 -17 34 -20 193 -4 227 0 220 -126 224 -111 3 -132 -7 -148 -72 -7 -27
-16 -52 -21 -57 -4 -4 -129 -9 -278 -9 -247 -2 -270 0 -282 16 -10 14 -13 91
-13 339 0 261 -3 325 -14 341 -12 16 -29 19 -118 22 -57 1 -109 -2 -117 -7z"/>
<path d="M909 3879 c-15 -6 -30 -20 -33 -32 -3 -12 -6 -385 -6 -828 0 -780 1
-808 19 -830 l19 -24 821 0 c917 0 847 -6 860 72 3 21 4 395 1 831 -5 771 -6
794 -24 808 -17 12 -145 14 -825 13 -494 0 -816 -4 -832 -10z m1515 -132 c10
-7 22 -33 27 -58 12 -67 11 -1159 -2 -1197 -6 -17 -17 -33 -24 -36 -8 -3 -291
-6 -630 -7 -472 -1 -619 2 -630 11 -13 11 -15 99 -15 636 0 611 0 624 20 644
20 20 33 20 628 20 485 0 612 -3 626 -13z"/>
<path d="M1362 3450 c-18 -4 -35 -10 -38 -13 -18 -18 -24 -119 -24 -423 0
-361 4 -400 44 -410 35 -8 759 0 778 10 35 16 39 77 36 440 -2 251 -6 357 -15
372 -8 13 -27 24 -50 28 -54 8 -691 6 -731 -4z"/>
<path d="M3210 3883 c-22 -9 -30 -24 -30 -63 0 -55 11 -60 131 -60 122 0 139
8 139 65 0 56 -18 65 -128 64 -53 0 -104 -3 -112 -6z"/>
<path d="M2933 3740 c-12 -5 -26 -22 -30 -37 -4 -15 -8 -261 -8 -545 0 -483 1
-518 18 -535 15 -15 35 -18 117 -18 130 0 130 0 140 144 4 61 13 117 19 125
10 11 61 15 266 18 228 3 256 5 272 21 14 14 19 40 23 130 3 62 8 117 12 123
4 6 28 14 54 17 25 2 51 10 57 16 16 16 22 166 8 212 -11 35 -15 38 -56 45
-54 8 -293 0 -317 -10 -24 -11 -30 -31 -35 -136 -8 -140 -7 -140 -153 -140
-112 0 -120 1 -134 22 -14 19 -16 63 -16 280 0 244 -1 258 -19 268 -24 12
-187 12 -218 0z"/>
<path d="M4252 3743 c-47 -9 -51 -31 -53 -292 -1 -225 0 -246 17 -258 12 -9
53 -13 130 -13 79 0 115 -4 121 -12 4 -7 10 -129 13 -270 4 -230 7 -259 23
-275 15 -15 36 -18 128 -19 72 0 114 -5 122 -13 8 -8 14 -72 17 -201 4 -160 8
-192 22 -206 13 -14 37 -17 117 -18 140 -1 135 -10 141 213 6 198 8 204 71
221 58 16 74 47 73 145 -1 102 -11 121 -69 129 -65 10 -75 29 -75 151 0 65 -4
107 -12 118 -11 14 -33 18 -126 20 -147 4 -145 3 -153 148 -7 144 -6 143 -145
142 -140 -2 -139 -2 -147 148 -7 142 -14 150 -121 148 -39 -1 -81 -4 -94 -6z"/>
<path d="M3960 3163 c-47 -9 -50 -19 -50 -139 0 -114 0 -115 26 -124 33 -13
190 -13 214 0 27 15 43 104 33 187 -7 60 -11 68 -33 74 -28 8 -151 9 -190 2z"/>
<path d="M5552 3161 c-18 -5 -35 -11 -38 -14 -18 -17 -24 -114 -24 -373 0
-264 -2 -292 -17 -306 -13 -11 -48 -17 -121 -20 -141 -7 -147 -13 -147 -148 0
-141 -11 -135 228 -137 255 -2 304 2 323 32 13 21 16 88 16 485 0 254 -4 466
-8 470 -13 12 -174 20 -212 11z"/>
<path d="M8736 3160 c-21 -4 -42 -13 -47 -21 -5 -8 -9 -60 -9 -115 0 -81 3
-104 16 -115 20 -16 179 -25 215 -11 35 14 52 80 43 169 -10 90 -24 103 -111
102 -38 -1 -85 -5 -107 -9z"/>
<path d="M9163 3164 c-41 -9 -53 -41 -53 -139 0 -125 2 -127 126 -133 89 -4
102 -2 124 16 24 19 25 25 24 122 -1 129 -4 133 -116 136 -46 1 -93 0 -105 -2z"/>
<path d="M3797 2873 c-27 -7 -37 -45 -37 -138 0 -93 -13 -133 -44 -140 -12 -2
-63 -6 -113 -8 -53 -3 -99 -10 -108 -17 -8 -7 -19 -29 -25 -50 -17 -65 -17
-64 -291 -70 -221 -4 -250 -7 -266 -23 -26 -26 -26 -218 0 -244 17 -17 55 -18
622 -18 567 0 605 1 622 18 23 23 31 188 11 227 -13 24 -19 25 -125 30 -152 7
-148 1 -149 183 -1 210 -3 224 -20 241 -15 16 -40 18 -77 9z"/>
<path d="M6123 2873 c-36 -7 -46 -30 -51 -111 -3 -55 0 -88 11 -113 18 -43 38
-49 163 -49 72 0 85 3 94 19 5 11 10 69 10 130 0 99 -2 111 -19 121 -19 10
-162 12 -208 3z"/>
<path d="M7737 2871 c-27 -4 -52 -13 -56 -20 -5 -7 -12 -62 -16 -121 -5 -82
-11 -112 -23 -123 -12 -10 -51 -16 -126 -20 -120 -6 -136 -14 -136 -68 0 -58
3 -59 126 -59 147 0 154 -5 154 -117 0 -81 12 -149 28 -165 11 -11 299 -18
345 -9 26 6 34 14 45 46 16 48 12 199 -7 218 -8 8 -49 12 -125 12 -137 0 -146
5 -146 80 0 78 11 84 155 87 l120 3 9 67 c5 38 5 93 0 125 -8 49 -13 58 -34
64 -32 9 -249 9 -313 0z"/>
<path d="M8440 2873 c-14 -3 -29 -9 -34 -14 -6 -5 -13 -58 -16 -119 -9 -147
-8 -145 -157 -153 -125 -6 -133 -9 -133 -63 0 -66 -9 -64 355 -69 182 -3 369
-5 418 -5 l87 0 0 -115 c0 -66 5 -125 12 -140 20 -45 95 -46 120 -2 17 30 15
175 -3 212 -8 17 -26 33 -42 37 -15 5 -39 11 -54 16 -23 6 -30 16 -38 56 -15
68 -30 76 -150 76 -127 0 -135 6 -136 106 0 92 -13 164 -30 175 -14 9 -153 10
-199 2z"/>
<path d="M6388 2580 c-22 -13 -24 -67 -4 -96 8 -11 33 -26 56 -33 50 -15 55
-27 65 -146 10 -132 13 -135 139 -135 145 0 141 -7 141 216 0 128 -3 176 -13
186 -17 17 -358 23 -384 8z"/>
<path d="M7133 2441 c-35 -15 -43 -43 -43 -144 0 -113 6 -121 96 -131 87 -9
142 1 161 31 23 35 24 206 2 228 -19 19 -181 31 -216 16z"/>
</g>
</svg>
