<?xml version="1.0" standalone="no"?>
<!DOCTYPE svg PUBLIC "-//W3C//DTD SVG 20010904//EN"
 "http://www.w3.org/TR/2001/REC-SVG-20010904/DTD/svg10.dtd">
<svg version="1.0" xmlns="http://www.w3.org/2000/svg"
 width="1181.000000pt" height="1181.000000pt" viewBox="0 0 1181.000000 1181.000000"
 preserveAspectRatio="xMidYMid meet">

<g transform="translate(0.000000,1181.000000) scale(0.100000,-0.100000)"
fill="#000000" stroke="none">
<path d="M0 5905 l0 -5905 5905 0 5905 0 0 5905 0 5905 -5905 0 -5905 0 0
-5905z m2800 5164 c63 -13 126 -60 162 -119 32 -53 58 -172 58 -265 l0 -65
-130 0 -130 0 0 83 c0 95 -15 127 -58 127 -70 -1 -72 -11 -72 -408 0 -192 3
-364 6 -381 13 -63 88 -80 112 -26 7 15 12 77 12 150 l0 125 -35 0 -35 0 0
115 0 115 165 0 165 0 0 -385 0 -385 -56 0 -55 0 -21 50 -21 51 -28 -34 c-47
-57 -108 -80 -204 -75 -70 3 -89 7 -131 33 -28 18 -60 49 -76 75 -53 87 -60
136 -65 485 -8 474 7 572 102 665 73 72 200 98 335 69z m1074 -6 c49 -13 71
-27 111 -67 59 -59 83 -121 92 -233 l6 -73 -137 0 -136 0 0 51 c0 68 -13 89
-53 89 -18 0 -38 -5 -45 -12 -15 -15 -16 -72 -1 -101 6 -12 78 -89 159 -172
154 -157 180 -194 206 -298 33 -128 0 -340 -67 -420 -56 -68 -96 -82 -239 -82
-117 0 -128 2 -176 27 -108 57 -144 138 -152 336 l-5 132 132 0 131 0 1 -92
c1 -114 8 -139 41 -157 23 -13 29 -13 52 2 24 16 26 23 26 88 0 39 -7 85 -15
105 -8 20 -78 101 -154 180 -183 188 -206 231 -206 384 0 97 2 110 31 171 36
75 79 115 151 141 62 22 170 23 247 1z m3701 -12 c63 -28 100 -63 130 -122 42
-81 47 -149 43 -555 -4 -365 -4 -381 -26 -435 -33 -83 -71 -130 -133 -164 -51
-28 -60 -30 -169 -30 -109 0 -118 2 -169 30 -61 34 -100 81 -133 164 -23 55
-23 62 -23 476 0 471 1 482 71 564 64 74 141 102 269 98 67 -2 103 -9 140 -26z
m1787 13 c67 -19 138 -76 167 -133 38 -73 43 -140 39 -551 -3 -389 -4 -396
-27 -454 -50 -126 -148 -186 -302 -186 -105 0 -173 26 -229 86 -56 61 -77 113
-90 220 -13 113 -13 632 0 744 17 146 77 231 192 271 67 23 173 24 250 3z
m-7856 -9 c114 -34 161 -149 152 -373 -5 -129 -24 -182 -78 -221 l-38 -27 30
-13 c19 -9 37 -29 49 -55 17 -37 19 -69 19 -328 l0 -288 -130 0 -129 0 -3 285
c-2 172 -7 288 -13 293 -5 6 -25 13 -42 17 l-33 7 0 -301 0 -301 -140 0 -140
0 0 660 0 660 223 0 c168 0 236 -4 273 -15z m769 -115 l0 -125 -127 -3 -128
-3 0 -124 0 -125 120 0 120 0 0 -130 0 -130 -120 0 -120 0 0 -145 0 -145 135
0 135 0 0 -130 0 -130 -275 0 -275 0 0 660 0 660 268 -2 267 -3 0 -125z m1093
-532 l2 -658 -130 0 -130 0 0 660 0 661 128 -3 127 -3 3 -657z m1342 532 l0
-130 -80 0 -80 0 0 -530 0 -530 -135 0 -135 0 0 530 0 530 -75 0 -75 0 0 130
0 130 290 0 290 0 0 -130z m600 0 l0 -130 -130 0 -130 0 0 -125 0 -125 125 0
126 0 -3 -127 -3 -128 -122 -3 -123 -3 0 -144 0 -145 140 0 140 0 0 -130 0
-130 -275 0 -275 0 0 660 0 660 265 0 265 0 0 -130z m632 98 c35 -21 53 -41
73 -82 50 -103 56 -347 10 -436 -8 -16 -31 -42 -49 -57 l-35 -27 29 -18 c62
-37 65 -53 68 -375 l3 -293 -135 0 -136 0 0 284 c0 309 2 300 -58 312 l-32 7
0 -302 0 -301 -135 0 -135 0 0 661 0 660 243 -3 242 -3 47 -27z m1098 -98 l0
-130 -80 0 -80 0 0 -530 0 -530 -135 0 -135 0 0 530 0 530 -75 0 -75 0 0 130
0 130 290 0 290 0 0 -130z m1384 113 c2 -10 24 -201 47 -425 24 -224 44 -406
46 -405 2 3 83 823 83 842 0 3 59 5 131 5 119 0 130 -1 125 -17 -2 -10 -40
-307 -83 -660 l-78 -643 -182 0 -182 0 -6 33 c-7 45 -155 1255 -155 1273 0 11
22 14 124 14 110 0 125 -2 130 -17z m1786 -113 l0 -130 -80 0 -80 0 0 -530 0
-530 -135 0 -135 0 0 530 0 530 -75 0 -75 0 0 130 0 130 290 0 290 0 0 -130z
m600 0 l0 -130 -130 0 -130 0 0 -125 0 -125 125 0 126 0 -3 -127 -3 -128 -122
-3 -123 -3 0 -144 0 -145 135 0 135 0 0 -130 0 -130 -270 0 -270 0 0 660 0
660 265 0 265 0 0 -130z m-5515 -1716 c49 -25 52 -35 22 -69 l-23 -28 -35 18
c-63 33 -149 19 -149 -25 0 -27 30 -46 104 -63 85 -21 113 -38 132 -82 30 -73
3 -153 -61 -184 -69 -33 -181 -22 -242 25 -39 30 -40 40 -9 79 l24 29 36 -32
c24 -21 48 -32 69 -33 76 -3 97 8 97 52 0 33 -24 49 -104 68 -69 17 -103 37
-121 71 -29 57 -15 128 35 167 45 37 160 40 225 7z m410 15 c41 -11 105 -67
105 -91 0 -7 -16 -22 -35 -32 l-34 -19 -26 32 c-23 27 -33 31 -77 31 -90 0
-118 -35 -118 -150 0 -113 30 -152 118 -152 39 0 51 5 73 30 15 16 28 35 31
42 3 9 13 7 41 -6 41 -20 42 -34 5 -87 -31 -44 -74 -61 -153 -62 -95 0 -152
32 -189 107 -37 74 -37 182 0 256 46 92 148 132 259 101z m1489 -3 c71 -30 87
-101 35 -160 -16 -19 -39 -38 -49 -41 -18 -6 -16 -11 23 -62 l42 -57 9 52 c9
51 10 52 42 52 33 0 34 -1 34 -42 -1 -24 -7 -61 -15 -83 -8 -22 -15 -41 -15
-42 0 -2 11 -3 25 -3 18 0 25 -5 25 -19 0 -11 3 -26 6 -35 9 -24 -41 -31 -84
-12 -35 16 -40 16 -77 0 -28 -11 -56 -15 -92 -11 -97 10 -143 57 -143 145 0
41 5 55 28 79 15 16 34 32 42 35 12 4 12 10 -3 40 -34 72 -15 137 47 164 40
17 79 17 120 0z m651 3 c36 -10 105 -66 105 -86 0 -5 -16 -17 -35 -27 l-34
-19 -31 27 c-25 20 -42 26 -79 26 -88 0 -128 -59 -119 -175 6 -75 28 -111 75
-124 69 -19 133 17 133 75 0 22 -4 24 -55 24 l-55 0 0 40 0 40 100 0 100 0 0
-130 0 -130 -45 0 c-42 0 -45 2 -45 27 l0 27 -27 -26 c-35 -33 -70 -42 -128
-34 -54 9 -98 43 -128 100 -17 33 -21 58 -21 131 0 73 4 98 21 131 26 49 74
92 111 100 15 3 32 7 37 9 22 7 82 4 120 -6z m513 -19 c76 -43 110 -130 99
-251 -13 -143 -136 -227 -277 -189 -57 15 -124 80 -139 135 -14 51 -14 139 0
189 14 50 73 113 124 132 54 19 143 12 193 -16z m987 19 c97 -26 148 -104 149
-224 1 -45 -5 -87 -17 -117 -50 -130 -216 -169 -336 -80 -102 76 -102 307 0
385 58 43 130 56 204 36z m-3151 -221 c42 -123 76 -226 76 -230 0 -5 -22 -8
-48 -8 l-48 0 -15 48 -15 47 -89 0 -89 0 -15 -47 -15 -48 -49 0 c-35 0 -48 4
-45 13 3 6 38 110 79 229 l74 218 61 0 62 0 76 -222z m344 75 l92 -148 0 148
0 147 50 0 50 0 0 -230 0 -230 -52 0 -53 1 -95 156 -95 157 -3 -157 -3 -157
-44 0 -45 0 0 230 0 230 53 0 54 0 91 -147z m2482 107 l0 -40 -65 0 -65 0 0
-190 0 -190 -50 0 -50 0 0 190 0 190 -65 0 -65 0 0 40 0 40 180 0 180 0 0 -40z
m861 12 c74 -39 104 -96 104 -202 0 -106 -30 -163 -104 -202 -50 -26 -62 -28
-172 -28 l-119 0 0 230 0 230 119 0 c110 0 122 -2 172 -28z m498 -189 c41
-120 76 -224 79 -230 3 -9 -10 -13 -47 -13 l-50 0 -14 48 -14 47 -90 3 -89 3
-15 -48 c-15 -48 -15 -48 -62 -51 -26 -2 -47 1 -47 5 0 4 34 108 76 231 l77
222 61 0 61 0 74 -217z m243 126 c37 -63 56 -86 61 -77 5 7 28 48 53 91 l45
77 50 0 c44 0 49 -2 40 -17 -5 -10 -41 -74 -80 -141 l-71 -124 0 -89 0 -89
-45 0 -45 0 0 86 0 86 -69 122 c-105 187 -100 166 -42 166 l50 0 53 -91z
m-7702 -79 c11 -11 20 -31 20 -45 0 -14 -9 -34 -20 -45 -20 -20 -33 -20 -1074
-20 l-1055 0 -20 26 c-12 15 -21 32 -21 39 0 7 9 24 21 39 l20 26 1055 0
c1041 0 1054 0 1074 -20z m4925 -954 c99 -26 176 -93 222 -191 l28 -60 3
-3334 c2 -3627 6 -3398 -51 -3488 -33 -52 -93 -104 -152 -134 l-50 -24 -3357
-3 -3357 -2 -56 21 c-74 27 -165 111 -196 181 l-24 53 0 3370 0 3370 22 47
c41 90 133 170 223 194 70 19 6674 19 6745 0z m1014 -142 c12 -15 21 -41 21
-61 0 -33 -2 -34 -32 -31 -29 3 -33 7 -36 36 -7 66 -22 18 -22 -68 0 -89 16
-134 22 -63 3 35 6 38 37 41 l34 3 -5 -52 c-6 -61 -24 -79 -79 -79 -58 0 -69
23 -69 150 0 128 10 150 70 150 30 0 43 -6 59 -26z m165 4 c12 -17 16 -49 16
-128 0 -127 -11 -150 -69 -150 -60 0 -75 25 -80 131 -5 137 10 169 79 169 29
0 43 -6 54 -22z m98 -100 c2 -74 7 -123 13 -123 6 0 11 49 13 123 l3 122 30 0
31 0 -4 -136 c-3 -151 -9 -164 -73 -164 -64 0 -70 13 -73 164 l-4 136 31 0 30
0 3 -122z m237 108 c21 -26 25 -83 7 -111 -9 -14 -12 -25 -6 -25 6 0 10 -31
10 -75 l0 -75 -30 0 -30 0 0 65 c0 37 -4 65 -10 65 -6 0 -10 -28 -10 -65 l0
-65 -30 0 -30 0 0 150 0 150 59 0 c38 0 63 -5 70 -14z m161 -16 c0 -23 -4 -30
-20 -30 -19 0 -20 -7 -20 -120 l0 -120 -30 0 -30 0 0 120 c0 100 -2 120 -15
120 -10 0 -15 10 -15 30 l0 30 65 0 65 0 0 -30z m130 0 c0 -25 -4 -30 -25 -30
-21 0 -25 -5 -25 -30 0 -25 4 -30 25 -30 20 0 25 -5 25 -25 0 -20 -5 -25 -25
-25 -22 0 -25 -4 -25 -35 0 -32 2 -35 30 -35 27 0 30 -3 30 -30 l0 -30 -65 0
-65 0 0 150 0 150 60 0 60 0 0 -30z m136 22 c15 -10 34 -47 34 -66 0 -25 -57
-21 -65 4 -4 11 -11 18 -16 15 -16 -10 -10 -24 25 -56 43 -39 60 -79 53 -125
-8 -49 -23 -64 -66 -64 -51 0 -71 18 -78 68 -6 41 -5 42 25 42 25 0 31 -4 34
-25 4 -31 22 -38 26 -10 2 12 -15 41 -44 75 -41 48 -45 58 -40 89 3 20 13 42
23 48 18 14 71 17 89 5z m109 -34 c5 -27 9 -36 12 -23 13 65 13 65 44 65 24 0
29 -3 25 -17 -20 -64 -46 -201 -46 -238 0 -43 -1 -45 -30 -45 -30 0 -30 0 -30
58 0 31 -9 94 -20 140 -25 105 -25 102 9 102 26 0 29 -4 36 -42z m309 20 c12
-17 16 -49 16 -128 0 -127 -11 -150 -69 -150 -60 0 -75 25 -80 131 -5 137 10
169 79 169 29 0 43 -6 54 -22z m166 -8 c0 -27 -3 -30 -30 -30 -25 0 -30 -4
-30 -25 0 -20 5 -25 25 -25 20 0 25 -5 25 -25 0 -20 -5 -25 -25 -25 -24 0 -25
-2 -25 -70 l0 -70 -35 0 -35 0 0 143 c0 79 3 147 7 150 3 4 33 7 65 7 58 0 58
0 58 -30z m70 -75 c0 -21 -5 -25 -30 -25 -25 0 -30 4 -30 25 0 21 5 25 30 25
25 0 30 -4 30 -25z m0 -130 c0 -21 -5 -25 -30 -25 -25 0 -30 4 -30 25 0 21 5
25 30 25 25 0 30 -4 30 -25z m15 -720 c149 -39 283 -151 354 -296 24 -50 45
-110 51 -149 6 -40 10 -363 10 -825 0 -836 -1 -840 -61 -964 -46 -93 -151
-199 -241 -245 -137 -68 -106 -66 -981 -66 -868 0 -842 -2 -977 62 -83 40
-195 149 -237 233 -66 129 -63 86 -63 990 0 911 -3 867 67 994 69 123 218 239
348 270 23 5 388 9 855 10 703 1 824 -1 875 -14z m6 -3131 c155 -46 281 -152
349 -295 22 -48 44 -112 50 -149 13 -87 13 -1542 0 -1630 -6 -41 -27 -99 -55
-156 -35 -73 -58 -104 -112 -155 -69 -65 -160 -117 -243 -140 -62 -17 -1536
-25 -1660 -9 -212 28 -387 173 -457 379 l-22 66 -1 826 c0 910 -3 868 63 994
41 77 147 184 217 220 131 67 80 64 991 64 731 1 832 -1 880 -15z"/>
<path d="M7376 10808 c-14 -19 -16 -74 -16 -395 0 -214 4 -382 10 -397 13 -36
56 -45 83 -17 22 21 22 25 22 410 0 314 -3 391 -14 404 -20 25 -67 21 -85 -5z"/>
<path d="M9199 10813 c-11 -13 -14 -90 -14 -404 0 -385 0 -389 22 -410 29 -30
67 -20 82 22 7 21 11 158 11 398 0 316 -2 370 -16 389 -18 26 -65 30 -85 5z"/>
<path d="M1290 10700 l0 -120 34 0 c60 0 83 47 74 155 -6 68 -20 85 -69 85
l-39 0 0 -120z"/>
<path d="M5680 10700 l0 -120 39 0 c57 0 71 24 71 123 0 102 -8 117 -65 117
l-45 0 0 -120z"/>
<path d="M7113 9173 c-17 -6 -16 -55 1 -78 12 -17 16 -17 30 -5 55 45 31 108
-31 83z"/>
<path d="M7060 8961 c-27 -51 12 -111 73 -111 18 0 36 3 40 6 7 8 -80 124 -93
124 -5 0 -14 -9 -20 -19z"/>
<path d="M8171 9139 c-31 -29 -41 -61 -41 -128 0 -72 14 -115 45 -135 28 -18
107 -21 137 -5 29 15 48 70 48 137 0 112 -31 152 -118 152 -35 0 -54 -6 -71
-21z"/>
<path d="M9201 9132 c-33 -32 -46 -97 -35 -169 10 -70 47 -103 114 -103 43 0
56 5 80 28 52 53 52 191 0 244 -24 23 -37 28 -80 28 -43 0 -56 -5 -79 -28z"/>
<path d="M6025 9059 c-14 -44 -25 -82 -25 -85 0 -2 25 -4 56 -4 48 0 55 2 50
18 -3 9 -15 47 -26 85 -11 37 -23 67 -25 67 -2 0 -16 -36 -30 -81z"/>
<path d="M9680 9010 l0 -152 71 4 c65 3 74 7 99 35 32 35 45 94 35 154 -4 23
-19 55 -35 72 -25 28 -34 32 -99 35 l-71 4 0 -152z"/>
<path d="M10217 9065 c-15 -44 -27 -83 -27 -88 0 -4 25 -7 56 -7 52 0 55 1 49
21 -4 11 -17 51 -29 87 l-23 67 -26 -80z"/>
<path d="M1280 7889 c-95 -19 -173 -102 -190 -204 -11 -65 -14 -1075 -4 -1113
14 -50 89 -59 113 -13 8 13 11 200 11 571 0 493 2 555 16 580 37 62 18 60 621
60 422 0 554 3 573 13 20 10 25 20 25 52 0 32 -5 42 -25 52 -19 10 -147 12
-560 12 -294 -1 -555 -5 -580 -10z"/>
<path d="M6532 7890 c-50 -21 -48 -91 4 -110 15 -6 251 -10 575 -10 l549 0 38
-34 37 -34 3 -568 c2 -421 6 -571 14 -582 27 -32 78 -31 100 2 4 6 8 268 8
582 l0 570 -26 52 c-26 52 -77 101 -130 124 -36 16 -1135 23 -1172 8z"/>
<path d="M1367 7583 c-4 -3 -7 -393 -7 -865 l0 -858 863 2 862 3 0 860 0 860
-856 3 c-470 1 -859 -1 -862 -5z m1473 -858 l0 -615 -615 0 -615 0 0 615 0
615 615 0 615 0 0 -615z"/>
<path d="M1857 7083 c-4 -3 -7 -168 -7 -365 l0 -358 370 0 370 0 0 365 0 365
-363 0 c-200 0 -367 -3 -370 -7z"/>
<path d="M3587 7583 c-4 -3 -7 -60 -7 -125 l0 -118 119 0 c138 0 131 -7 131
125 0 132 6 125 -124 125 -62 0 -116 -3 -119 -7z"/>
<path d="M4077 7583 c-4 -3 -7 -60 -7 -125 l0 -118 -120 0 -120 0 0 -120 0
-120 120 0 120 0 0 -125 0 -125 -245 0 -245 0 0 120 0 120 -125 0 -125 0 0
-735 0 -735 125 0 125 0 0 490 0 490 125 0 125 0 0 -490 0 -490 120 0 120 0 0
245 0 245 125 0 125 0 0 -125 0 -125 120 0 120 0 0 125 0 125 -120 0 -120 0 0
125 0 125 120 0 120 0 0 245 0 245 -120 0 -120 0 0 125 0 125 490 0 490 0 0
120 0 120 -120 0 -119 0 -3 123 -3 122 -120 0 -120 0 -3 -123 -3 -123 -122 3
-122 3 -3 123 -3 122 -238 0 c-131 0 -241 -3 -244 -7z m243 -858 l0 -125 -125
0 -125 0 0 125 0 125 125 0 125 0 0 -125z"/>
<path d="M5310 7465 l0 -125 120 0 121 0 -3 123 -3 122 -117 3 -118 3 0 -126z"/>
<path d="M5800 6725 l0 -865 860 0 860 0 0 865 0 865 -860 0 -860 0 0 -865z
m1480 0 l0 -615 -620 0 -620 0 0 615 0 615 620 0 620 0 0 -615z"/>
<path d="M6290 6725 l0 -365 370 0 370 0 0 365 0 365 -370 0 -370 0 0 -365z"/>
<path d="M5310 6970 l0 -120 -247 -2 -248 -3 -3 -242 -2 -243 125 0 125 0 0
-125 0 -124 -122 -3 -123 -3 -3 -122 -3 -123 -119 0 -120 0 0 -120 0 -120
-247 -2 -248 -3 -3 -122 -3 -123 -119 0 -120 0 0 -370 0 -370 -250 0 -250 0 0
-245 0 -244 123 -3 122 -3 3 -122 3 -123 124 0 125 0 0 -125 0 -125 120 0 120
0 0 245 0 244 -121 3 -120 3 0 120 0 120 120 3 121 3 0 369 0 370 125 0 125 0
0 -740 0 -740 125 0 125 0 0 -120 0 -120 120 0 120 0 0 -125 0 -125 -120 0
-119 0 -3 -122 -3 -123 -367 -3 -368 -2 0 -245 0 -245 -125 0 -125 0 0 245 0
245 -125 0 -125 0 0 -490 0 -490 125 0 125 0 0 -125 0 -124 -122 -3 -123 -3
-3 -118 -3 -117 126 0 125 0 0 120 0 120 119 0 c99 0 120 3 125 16 8 20 8 198
0 218 -5 13 -26 16 -125 16 l-119 0 0 125 0 126 123 -3 122 -3 3 -122 3 -123
119 0 119 0 3 123 3 122 123 3 122 3 0 119 0 120 -125 0 -125 0 0 125 0 125
370 0 369 0 3 121 3 121 120 1 120 2 3 123 3 122 124 0 125 0 0 -370 0 -370
-125 0 -124 0 -3 122 -3 123 -120 0 -120 0 -3 -242 -2 -243 370 0 370 0 0 120
0 120 125 0 125 0 0 -120 0 -120 120 0 120 0 0 120 0 120 125 0 125 0 0 -245
0 -245 -245 0 -245 0 0 120 0 120 -125 0 -125 0 0 -245 0 -245 615 0 615 0 0
125 0 125 -120 0 -120 0 0 245 0 245 120 0 120 0 0 245 0 245 -120 0 -120 0 0
250 0 250 120 0 120 0 0 120 0 120 -985 0 -985 0 0 125 0 125 125 0 125 0 0
245 0 245 120 0 120 0 0 125 0 125 -120 0 -120 0 0 125 0 126 123 -3 122 -3 3
-122 3 -123 244 0 245 0 0 -125 0 -125 -245 0 -245 0 0 -120 0 -120 120 0 120
0 0 -125 0 -125 245 0 245 0 0 120 0 120 -120 0 -120 0 0 125 0 125 125 0 125
0 0 -120 0 -119 118 -3 117 -3 3 -122 3 -123 124 0 125 0 0 245 0 245 120 0
120 0 0 125 0 125 -490 0 -490 0 0 125 0 125 120 0 120 0 0 120 0 120 -120 0
-120 0 0 125 0 126 123 -3 122 -3 3 -122 3 -123 119 0 120 0 0 -120 0 -120
125 0 125 0 0 245 0 245 245 0 246 0 -3 123 -3 122 -610 0 -610 0 -3 -122 -3
-122 -122 -3 -122 -3 -3 -122 -3 -123 -124 0 -125 0 0 250 0 250 -245 0 -245
0 0 120 0 120 125 0 125 0 0 125 0 125 120 0 120 0 0 245 0 245 125 0 125 0 0
245 0 245 -120 0 -120 0 0 -120z m-500 -2220 l0 -621 -122 3 -123 3 -3 605
c-1 333 0 611 3 618 3 9 38 12 125 12 l120 0 0 -620z m1480 -1720 l0 -370
-370 0 -370 0 0 363 c0 200 3 367 7 370 3 4 170 7 370 7 l363 0 0 -370z"/>
<path d="M5802 3028 l3 -123 118 -3 117 -3 0 126 0 125 -120 0 -121 0 3 -122z"/>
<path d="M4570 6230 l0 -120 120 0 120 0 0 120 0 120 -120 0 -120 0 0 -120z"/>
<path d="M5310 5865 l0 -245 120 0 120 0 0 245 0 245 -120 0 -120 0 0 -245z"/>
<path d="M1367 5614 c-4 -4 -7 -61 -7 -126 l0 -118 125 0 125 0 0 -245 0 -244
-122 -3 -123 -3 -3 -737 -2 -738 125 0 125 0 0 490 0 490 120 0 120 0 0 -120
0 -119 123 -3 122 -3 3 -122 3 -123 -126 0 -126 0 3 -122 3 -123 120 0 120 0
3 123 3 122 124 0 125 0 0 125 0 125 120 0 120 0 0 245 0 245 125 0 125 0 0
-125 0 -126 123 3 122 3 0 120 0 120 -122 3 -123 3 0 124 0 125 125 0 126 0
-3 118 -3 117 -122 3 -123 3 0 124 0 124 123 3 122 3 0 120 0 120 -615 0 -615
0 0 -120 0 -120 123 -3 122 -3 0 -124 0 -125 -125 0 -125 0 0 125 0 125 -120
0 -119 0 -3 123 -3 122 -116 3 c-63 1 -118 -1 -122 -4z m1223 -369 l0 -125
-120 0 -120 0 0 -120 0 -120 120 0 120 0 0 -125 0 -125 -120 0 -120 0 0 -125
0 -125 -125 0 -125 0 0 125 0 125 -125 0 -125 0 0 125 0 125 125 0 125 0 0
120 0 120 125 0 125 0 0 125 0 125 120 0 120 0 0 -125z"/>
<path d="M3587 5613 c-4 -3 -7 -60 -7 -125 l0 -118 119 0 c99 0 120 3 125 16
8 20 8 182 0 212 -6 21 -11 22 -118 22 -62 0 -116 -3 -119 -7z"/>
<path d="M7280 5245 l0 -125 120 0 120 0 0 125 0 125 -120 0 -120 0 0 -125z"/>
<path d="M3330 5000 l0 -120 125 0 125 0 0 120 0 120 -125 0 -125 0 0 -120z"/>
<path d="M6790 5000 l0 -120 120 0 120 0 0 120 0 120 -120 0 -120 0 0 -120z"/>
<path d="M7030 4505 l0 -125 125 0 125 0 0 -120 0 -120 120 0 120 0 0 245 0
245 -245 0 -245 0 0 -125z"/>
<path d="M2840 4010 l0 -121 123 3 122 3 3 118 3 117 -126 0 -125 0 0 -120z"/>
<path d="M6790 4010 l0 -120 120 0 119 0 3 -122 3 -123 123 -3 122 -3 0 -244
0 -245 -245 0 -245 0 0 -125 0 -125 365 0 365 1 0 494 0 495 -245 0 -245 0 0
120 0 120 -120 0 -120 0 0 -120z"/>
<path d="M2840 3520 l0 -120 245 0 244 0 3 -122 3 -123 239 -3 c185 -2 241 1
247 10 9 15 11 440 3 463 -5 13 -71 15 -495 15 l-489 0 0 -120z"/>
<path d="M4320 3270 l0 -120 120 0 120 0 0 120 0 120 -120 0 -120 0 0 -120z"/>
<path d="M1362 2288 l3 -863 860 0 860 0 0 860 0 860 -863 3 -862 2 2 -862z
m1478 -3 l0 -615 -615 0 -615 0 0 615 0 615 615 0 615 0 0 -615z"/>
<path d="M1855 2647 c-3 -6 -4 -172 -3 -367 l3 -355 368 -3 367 -2 0 370 0
370 -365 0 c-284 0 -367 -3 -370 -13z"/>
<path d="M1109 2411 l-24 -19 0 -534 c0 -426 3 -541 14 -572 17 -49 73 -111
125 -139 41 -22 47 -22 609 -25 397 -2 573 1 588 8 38 21 41 78 5 102 -6 4
-258 8 -559 8 -594 0 -592 0 -635 55 -22 28 -22 29 -22 561 l0 533 -26 20
c-33 26 -45 26 -75 2z"/>
<path d="M7030 2290 l0 -119 123 -3 122 -3 3 -122 3 -123 119 0 120 0 0 245 0
245 -245 0 -245 0 0 -120z"/>
<path d="M4570 2040 l0 -120 120 0 120 0 0 120 0 120 -120 0 -120 0 0 -120z"/>
<path d="M6790 2040 l0 -120 120 0 120 0 0 -125 0 -125 -120 0 -120 0 0 -120
0 -120 365 0 365 0 0 120 0 120 -120 0 -119 0 -3 123 -3 122 -122 3 -123 3 0
119 0 120 -120 0 -120 0 0 -120z"/>
<path d="M4074 1907 c-2 -7 -3 -62 -2 -123 l3 -109 243 -3 242 -2 0 125 0 125
-240 0 c-190 0 -242 -3 -246 -13z"/>
<path d="M4817 1913 c-4 -3 -7 -60 -7 -125 l0 -118 -120 0 -120 0 0 -120 0
-120 365 0 365 0 0 120 0 120 -120 0 -120 0 0 125 0 125 -118 0 c-65 0 -122
-3 -125 -7z"/>
<path d="M8956 7934 c-3 -9 -6 -46 -6 -84 0 -73 7 -103 21 -94 5 3 9 45 9 94
0 84 -10 120 -24 84z"/>
<path d="M9290 7914 c0 -31 23 -28 28 4 2 15 -2 22 -12 22 -11 0 -16 -9 -16
-26z"/>
<path d="M10136 7934 c-3 -9 -6 -46 -6 -84 0 -73 7 -103 21 -94 5 3 9 45 9 94
0 84 -10 120 -24 84z"/>
<path d="M10350 6921 c-80 -26 -136 -79 -165 -155 -42 -110 19 -245 132 -293
18 -7 61 -13 96 -13 79 0 138 28 184 88 113 149 16 363 -171 378 -28 2 -62 0
-76 -5z"/>
<path d="M9390 6526 c-319 -68 -556 -278 -661 -584 -32 -93 -33 -103 -33 -252
-1 -132 3 -167 22 -233 86 -301 315 -526 617 -609 116 -31 318 -31 428 0 412
118 671 476 643 891 -21 321 -209 588 -509 726 -40 18 -101 40 -137 50 -88 23
-286 28 -370 11z m262 -327 c133 -27 278 -129 345 -240 58 -97 68 -89 -126
-89 -223 0 -211 11 -211 -184 0 -201 -11 -190 209 -194 l171 -4 -30 -56 c-56
-106 -169 -202 -285 -243 -75 -27 -201 -35 -278 -19 -191 39 -352 192 -402
381 -49 184 19 404 162 528 119 103 297 151 445 120z"/>
<path d="M9370 3680 c-263 -70 -481 -271 -564 -521 -72 -214 -56 -414 49 -636
72 -153 153 -262 489 -654 50 -58 120 -141 156 -183 l65 -77 34 38 c40 46 452
540 502 603 101 125 190 285 235 420 27 78 29 96 29 230 -1 123 -4 156 -24
220 -83 269 -276 464 -546 550 -101 33 -319 38 -425 10z m339 -156 c422 -103
625 -569 415 -949 -15 -27 -64 -86 -108 -131 -98 -98 -202 -154 -335 -180
-308 -60 -630 134 -727 440 -30 94 -36 245 -14 336 15 65 58 163 94 216 60 88
171 182 271 229 111 52 284 68 404 39z"/>
<path d="M9470 3286 c-67 -19 -108 -43 -166 -98 -137 -129 -153 -351 -38 -509
41 -56 123 -115 189 -134 57 -18 178 -20 226 -4 129 42 215 124 259 246 19 52
22 77 18 148 -5 101 -14 116 -49 79 -21 -22 -23 -33 -21 -87 5 -88 -25 -163
-91 -231 -125 -128 -318 -128 -443 -1 -154 156 -113 400 82 496 113 56 207 49
319 -22 l47 -30 24 22 c22 21 23 24 8 41 -71 78 -242 118 -364 84z"/>
<path d="M9935 3220 c-11 -4 -90 -78 -175 -164 -85 -86 -159 -156 -164 -156
-5 0 -37 27 -72 60 -57 55 -66 60 -106 60 -23 0 -51 -6 -60 -14 -15 -11 -4
-25 105 -134 67 -67 127 -122 132 -122 12 0 461 448 455 453 -29 25 -78 33
-115 17z"/>
</g>
</svg>
