<?xml version="1.0" encoding="utf-8"?>

<!DOCTYPE svg PUBLIC "-//W3C//DTD SVG 1.1//EN" "http://www.w3.org/Graphics/SVG/1.1/DTD/svg11.dtd">
<!-- Uploaded to: SVG Repo, www.svgrepo.com, Generator: SVG Repo Mixer Tools -->
<svg height="800px" width="800px" version="1.1" id="_x32_" xmlns="http://www.w3.org/2000/svg" xmlns:xlink="http://www.w3.org/1999/xlink" 
	 viewBox="0 0 512 512"  xml:space="preserve">
<style type="text/css">
	.st0{fill:#000000;}
</style>
<g>
	<path class="st0" d="M245.543,361.474c-0.009,0-0.017-0.009-0.017-0.009l-1.872-0.414L245.543,361.474z"/>
	<path class="st0" d="M481.475,250.273c-15.885-15.903-37.02-26.617-60.503-29.59c-2.048-36.764-17.641-69.999-42.059-94.391
		c-26.201-26.218-62.524-42.474-102.518-42.465c-37.462-0.009-71.728,14.261-97.427,37.611
		c-22.114,20.068-37.947,46.94-44.363,77.28c-6.212-1.033-12.575-1.615-19.07-1.615c-31.858-0.018-60.821,12.946-81.692,33.834
		C12.955,251.799,0,280.772,0,312.638c0,31.858,12.955,60.838,33.843,81.7c20.871,20.889,49.834,33.844,81.692,33.835h292.252
		c28.734,0.009,54.873-11.684,73.688-30.516c18.841-18.824,30.534-44.954,30.525-73.688
		C512.009,295.227,500.316,269.087,481.475,250.273z M462.254,378.427c-13.987,13.961-33.154,22.556-54.466,22.565H115.535
		c-24.436-0.009-46.436-9.866-62.471-25.884c-16.008-16.026-25.866-38.026-25.874-62.471c0.009-24.445,9.866-46.445,25.874-62.479
		c16.035-16.008,38.035-25.875,62.471-25.875c9.125,0,17.888,1.376,26.14,3.926l15.849,4.898l1.694-16.494
		c3.036-29.651,17.085-56.028,38.017-75.046c20.95-19.001,48.642-30.552,79.159-30.561c32.564,0.009,61.932,13.167,83.297,34.506
		c21.339,21.356,34.496,50.725,34.505,83.306c0,1.148-0.044,2.489-0.106,4.051l-0.52,14.622l14.34-0.546
		c21.259,0.044,40.382,8.613,54.343,22.556c13.953,13.979,22.548,33.146,22.566,54.467
		C484.802,345.281,476.207,364.448,462.254,378.427z"/>
	<path class="st0" d="M297.707,237.08c-4.386-12.055-7.881-20.465-7.934-20.597l-7.36-17.712l-14.279,12.805
		c-0.159,0.15-14.438,12.955-29.634,29.008c-7.607,8.039-15.426,16.864-21.965,25.574c-3.265,4.368-6.204,8.702-8.665,13.052
		c-2.444,4.378-4.457,8.702-5.605,13.635c-0.961,4.244-1.43,8.507-1.43,12.716c0.009,13.131,4.528,25.593,12.355,35.52
		c7.819,9.919,19.071,17.385,32.335,20.385l0.026,0.009c4.245,0.962,8.507,1.43,12.716,1.43c13.131,0,25.592-4.527,35.52-12.355
		c9.928-7.828,17.394-19.079,20.394-32.351c0.759-3.336,0.988-6.575,0.998-9.875c-0.027-8.913-1.792-18.514-4.192-28.549
		C307.361,264.808,302.083,249.152,297.707,237.08z M287.672,312.197c-1.606,7.042-5.472,12.849-10.713,17.005
		c-5.26,4.148-11.826,6.522-18.692,6.522c-2.198,0-4.439-0.247-6.698-0.759h-0.009c-7.06-1.606-12.866-5.471-17.023-10.722
		c-4.139-5.259-6.521-11.825-6.513-18.682c0-2.206,0.238-4.448,0.75-6.707c0.194-0.97,1.112-3.389,2.772-6.292
		c2.894-5.144,7.863-11.887,13.607-18.708c8.472-10.069,18.603-20.464,26.678-28.362c1.668,4.554,3.459,9.619,5.242,15.011
		c2.859,8.639,5.656,17.958,7.695,26.51c2.048,8.507,3.257,16.396,3.222,21.312C287.999,310.167,287.822,311.552,287.672,312.197z"
		/>
</g>
</svg>