<svg version="1.1" id="Layer_1" xmlns:x="ns_extend;" xmlns:i="ns_ai;" xmlns:graph="ns_graphs;" xmlns="http://www.w3.org/2000/svg" xmlns:xlink="http://www.w3.org/1999/xlink" x="0px" y="0px" viewBox="0 0 111.9 65" style="enable-background:new 0 0 111.9 65;" xml:space="preserve">
 <style type="text/css">
  .st0{fill-rule:evenodd;clip-rule:evenodd;fill:#2F313F;}
 </style>
 <metadata>
  <sfw xmlns="ns_sfw;">
   <slices>
   </slices>
   <sliceSourceBounds bottomLeftOrigin="true" height="65" width="111.9" x="-57.9" y="0.6">
   </sliceSourceBounds>
  </sfw>
 </metadata>
 <g>
  <path class="st0" d="M30.4,23c4.4-7.1,2.2-16.4-4.8-20.8C23.2,0.8,20.5,0,17.7,0H0v48.9h19.9c8.3,0,15-6.8,15-15.1
		C34.9,29.7,33.3,25.9,30.4,23z M11.4,11.5h6.3c2,0,3.6,1.6,3.6,3.6c0,2-1.6,3.6-3.6,3.6h-6.3V11.5z M19.9,37.4h-8.5v-7.2h8.5
		c2,0,3.6,1.6,3.6,3.6C23.5,35.8,21.9,37.4,19.9,37.4z M90,0v48.9H78.6V2.4L90,0z M56.8,13.9c-9.7,0-17.6,7.9-17.6,17.7
		c0,9.8,7.9,17.7,17.6,17.7c9.7,0,17.6-7.9,17.6-17.7C74.3,21.8,66.5,13.9,56.8,13.9z M56.8,37.4c-3.2,0-5.7-2.6-5.7-5.7
		c0-3.2,2.5-5.7,5.7-5.7c3.2,0,5.7,2.6,5.7,5.7C62.5,34.8,59.9,37.4,56.8,37.4z M62.5,59.3c0,3.2-2.6,5.7-5.7,5.7
		c-3.1,0-5.7-2.6-5.7-5.7c0-3.2,2.6-5.7,5.7-5.7C59.9,53.5,62.5,56.1,62.5,59.3z M111.8,14.5V26h-5.7v9c0,2.7,0.9,4.7,3.2,4.7
		c0.9,0,1.7-0.1,2.5-0.3v8.5c-1.7,0.9-3.6,1.4-5.6,1.4h-0.1c-0.1,0-0.1,0-0.2,0c-0.1,0-0.1,0-0.2,0h-0.1l-0.2,0
		C99.1,49,94.7,45,94.7,37.9v0v0V26V8.2l11.4-2.4v8.8H111.8z">
  </path>
 </g>
</svg>