<?xml version="1.0" encoding="iso-8859-1"?>
<!-- Uploaded to: SVG Repo, www.svgrepo.com, Generator: SVG Repo Mixer Tools -->
<svg height="800px" width="800px" version="1.1" id="Layer_1" xmlns="http://www.w3.org/2000/svg" xmlns:xlink="http://www.w3.org/1999/xlink" 
	 viewBox="0 0 511.99 511.99" xml:space="preserve">
<g>
	<path style="fill:#434A54;" d="M95.998,242.668c-1.461,0-2.914-0.312-4.273-0.906l-42.671-18.657
		c-3.883-1.703-6.391-5.531-6.391-9.781v-28.796c0-5.891,4.781-10.672,10.672-10.672s10.664,4.781,10.664,10.672l71.483,23.952
		c5.625-1.75,11.609,1.375,13.367,7c1.75,5.625-1.383,11.609-7,13.359l-42.671,13.344C98.139,242.496,97.068,242.668,95.998,242.668
		z"/>
	<path style="fill:#434A54;" d="M353.993,175.997c-1.094,0-68.186,10.5-69.264,10.156c-5.609-1.812-8.703-7.812-6.891-13.422
		c6.25-19.452,20.905-35.812,42.342-47.312c15.688-8.422,29.641-11.359,30.219-11.484c5.781-1.188,11.422,2.531,12.625,8.297
		C364.212,127.998,358.493,175.997,353.993,175.997z"/>
</g>
<path style="fill:#E6E9ED;" d="M148.481,317.446c-0.312,0-0.617,0-0.93-0.031c-5.875-0.516-10.218-5.672-9.71-11.545l5.765-66.796
	c0.508-5.859,5.672-10.203,11.547-9.703c5.867,0.5,10.21,5.672,9.703,11.547l-5.765,66.78
	C158.614,313.259,153.958,317.446,148.481,317.446z"/>
<g>
	<path style="fill:#434A54;" d="M85.334,261.323C38.28,261.323,0,299.604,0,346.665c0,47.047,38.28,85.326,85.334,85.326
		c47.046,0,85.326-38.279,85.326-85.326C170.661,299.604,132.38,261.323,85.334,261.323z"/>
	<path style="fill:#434A54;" d="M426.647,261.323c-47.029,0-85.311,38.281-85.311,85.342c0,47.047,38.281,85.326,85.311,85.326
		c47.062,0,85.343-38.279,85.343-85.326C511.99,299.604,473.71,261.323,426.647,261.323z"/>
</g>
<g>
	<path style="fill:#CCD1D9;" d="M85.334,309.321c-20.586,0-37.335,16.75-37.335,37.344c0,20.578,16.75,37.328,37.335,37.328
		s37.327-16.75,37.327-37.328C122.662,326.071,105.92,309.321,85.334,309.321z"/>
	<path style="fill:#CCD1D9;" d="M426.647,309.321c-20.577,0-37.311,16.75-37.311,37.344c0,20.578,16.733,37.328,37.311,37.328
		c20.594,0,37.344-16.75,37.344-37.328C463.991,326.071,447.241,309.321,426.647,309.321z"/>
</g>
<path style="fill:#E6E9ED;" d="M85.342,357.321c-3.539,0-7-1.75-9.031-4.969c-3.141-4.984-1.656-11.562,3.328-14.719l101.326-63.998
	c4.984-3.141,11.57-1.656,14.718,3.328c3.141,4.984,1.656,11.578-3.328,14.719L91.029,355.681
	C89.256,356.79,87.287,357.321,85.342,357.321z"/>
<path d="M274.214,290.198c-4.172,4.172-10.93,4.172-15.094,0c-4.164-4.156-4.164-10.906,0-15.078s10.922-4.172,15.094,0
	C278.37,279.292,278.37,286.042,274.214,290.198z"/>
<path style="fill:#4A89DC;" d="M483.366,187.216l-64-21.344c-1.094-0.359-2.218-0.547-3.374-0.547h-46.405
	c-5.891,0-10.656,4.781-10.656,10.672s4.766,10.672,10.656,10.672h44.687l62.343,20.78c1.125,0.375,2.25,0.547,3.375,0.547
	c4.469,0,8.625-2.827,10.125-7.296C491.975,195.122,488.96,189.075,483.366,187.216z"/>
<path style="fill:#CCD1D9;" d="M309.338,314.665H202.66c-3.352,0-6.516-1.594-8.531-4.266l-62.202-82.95L28.038,185.903
	c-4.75-1.906-7.484-6.906-6.516-11.922s5.359-8.656,10.477-8.656h254.527l73.139-20.608c5.484-1.531,11.203,1.484,13.016,6.891
	l7.031,21.015c0.859,2.594,0.688,5.438-0.469,7.922l-60.266,127.996C317.212,312.274,313.463,314.665,309.338,314.665z"/>
<g>
	<path style="fill:#E6E9ED;" d="M223.995,229.324c-17.648,0-32,14.359-32,31.999c0,17.656,14.352,32,32,32c17.648,0,32-14.344,32-32
		C255.995,243.683,241.643,229.324,223.995,229.324z"/>
	<path style="fill:#E6E9ED;" d="M270.175,203.513c-5.789-1.109-11.375,2.703-12.477,8.483c-1.102,5.781,2.695,11.375,8.484,12.469
		c17.031,3.25,30.546,16.875,40.202,40.499c7.766,18.984,9.843,37.328,9.89,37.719c0.25,2.312,1.219,4.359,2.656,5.967
		c0-0.047,0.031-0.078,0.047-0.109l14.234-30.248C326.399,252.058,309.588,211.027,270.175,203.513z"/>
</g>
<path style="fill:#5D9CEC;" d="M131.927,227.449L28.038,185.903c-4.75-1.906-7.484-6.906-6.516-11.922s5.359-8.656,10.477-8.656
	h254.527l73.139-20.608c5.484-1.531,11.203,1.484,13.016,6.891l7.031,21.015c0.859,2.594,0.688,5.438-0.469,7.922l-11.25,23.875
	C367.993,204.419,306.322,246.668,131.927,227.449z"/>
<path style="fill:#4A89DC;" d="M105.764,165.325H31.999c-5.117,0-9.508,3.641-10.477,8.656c-0.969,5.015,1.766,10.016,6.516,11.922
	l103.889,41.546c26.335,2.906,50.101,4.406,71.475,4.859C177.77,188.388,128.88,169.325,105.764,165.325z"/>
<path style="fill:#E6E9ED;" d="M426.647,357.337c-4.469,0-8.625-2.828-10.108-7.297l-82.89-248.713h-24.312
	c-5.906,0-10.688-4.766-10.688-10.656s4.781-10.672,10.688-10.672h31.999c4.578,0,8.656,2.938,10.109,7.297l85.326,255.994
	c1.875,5.578-1.156,11.625-6.75,13.484C428.913,357.149,427.772,357.337,426.647,357.337z"/>
</svg>